<svg width="875" height="4099" viewBox="0 0 875 4099" fill="none" xmlns="http://www.w3.org/2000/svg">
<path d="M109.151 4099H874.151V0H355.651C198.661 429.326 145.154 595.608 122.151 736C103.9 849.248 100.036 945.223 115.315 1039.5C146.922 1233.79 177.89 1277.76 355.651 1543.5C533.413 1809.24 539.404 1977.94 316.651 2065C-103.349 2270 -95.8486 2641 281.651 2843.5C523.651 2948.5 544.496 3060.36 370.651 3365C143.144 3675.43 85.1846 3836.3 109.151 4099Z" fill="#000F1A"/>
<path d="M109.151 4099H874.151V0H355.651C198.661 429.326 145.154 595.608 122.151 736C103.9 849.248 100.036 945.223 115.315 1039.5C146.922 1233.79 177.89 1277.76 355.651 1543.5C533.413 1809.24 539.404 1977.94 316.651 2065C-103.349 2270 -95.8486 2641 281.651 2843.5C523.651 2948.5 544.496 3060.36 370.651 3365C143.144 3675.43 85.1846 3836.3 109.151 4099Z" fill="url(#paint0_radial_92_11)"/>
<path d="M109.151 4099H874.151V0H355.651C198.661 429.326 145.154 595.608 122.151 736C103.9 849.248 100.036 945.223 115.315 1039.5C146.922 1233.79 177.89 1277.76 355.651 1543.5C533.413 1809.24 539.404 1977.94 316.651 2065C-103.349 2270 -95.8486 2641 281.651 2843.5C523.651 2948.5 544.496 3060.36 370.651 3365C143.144 3675.43 85.1846 3836.3 109.151 4099Z" fill="url(#paint1_radial_92_11)" fill-opacity="0.2"/>
<path d="M109.151 4099H874.151V0H355.651C198.661 429.326 145.154 595.608 122.151 736C103.9 849.248 100.036 945.223 115.315 1039.5C146.922 1233.79 177.89 1277.76 355.651 1543.5C533.413 1809.24 539.404 1977.94 316.651 2065C-103.349 2270 -95.8486 2641 281.651 2843.5C523.651 2948.5 544.496 3060.36 370.651 3365C143.144 3675.43 85.1846 3836.3 109.151 4099Z" fill="url(#paint2_radial_92_11)"/>
<path d="M109.151 4099H874.151V0H355.651C198.661 429.326 145.154 595.608 122.151 736C103.9 849.248 100.036 945.223 115.315 1039.5C146.922 1233.79 177.89 1277.76 355.651 1543.5C533.413 1809.24 539.404 1977.94 316.651 2065C-103.349 2270 -95.8486 2641 281.651 2843.5C523.651 2948.5 544.496 3060.36 370.651 3365C143.144 3675.43 85.1846 3836.3 109.151 4099Z" fill="url(#paint3_linear_92_11)"/>
<defs>
<radialGradient id="paint0_radial_92_11" cx="0" cy="0" r="1" gradientUnits="userSpaceOnUse" gradientTransform="translate(73.6516 2457) rotate(88.9359) scale(1642.28 981.394)">
<stop stop-color="#01612A"/>
<stop offset="0.355566" stop-color="#003A27" stop-opacity="0.859814"/>
<stop offset="0.496989" stop-color="#022424"/>
<stop offset="0.724394" stop-color="#02101B" stop-opacity="0.3"/>
<stop offset="1" stop-opacity="0.29"/>
</radialGradient>
<radialGradient id="paint1_radial_92_11" cx="0" cy="0" r="1" gradientUnits="userSpaceOnUse" gradientTransform="translate(1.73839e-05 1184) rotate(-19.2375) scale(462.845 794.585)">
<stop offset="0.315173" stop-color="#00E66C"/>
<stop offset="0.565624" stop-color="#01583D"/>
<stop offset="0.755208" stop-color="#02242B"/>
<stop offset="1" stop-color="#01090E" stop-opacity="0"/>
</radialGradient>
<radialGradient id="paint2_radial_92_11" cx="0" cy="0" r="1" gradientUnits="userSpaceOnUse" gradientTransform="translate(39 2080) rotate(48.7605) scale(603.755 1099.15)">
<stop stop-color="#18FF6E"/>
<stop offset="0.316515" stop-color="#0D873A" stop-opacity="0.529599"/>
<stop offset="0.636778" stop-color="#053718" stop-opacity="0.215813"/>
<stop offset="1" stop-opacity="0"/>
</radialGradient>
<linearGradient id="paint3_linear_92_11" x1="542" y1="4099" x2="543" y2="3270" gradientUnits="userSpaceOnUse">
<stop/>
<stop offset="0.411414" stop-opacity="0.882524"/>
<stop offset="1" stop-opacity="0"/>
</linearGradient>
</defs>
</svg>
