<svg width="1658" height="2055" viewBox="0 0 1658 2055" fill="none" xmlns="http://www.w3.org/2000/svg">
<path d="M1652.5 0H0L1.5 2054C357.251 2075.37 399.009 1632.28 470.5 1367C563.642 1045.46 684.107 854.648 869 756.639C1076.75 632.37 1325.65 616.457 1657.5 679.5L1652.5 0Z" fill="url(#paint0_radial_91_7)"/>
<path d="M1652.5 0H0L1.5 2054C357.251 2075.37 399.009 1632.28 470.5 1367C563.642 1045.46 684.107 854.648 869 756.639C1076.75 632.37 1325.65 616.457 1657.5 679.5L1652.5 0Z" fill="url(#paint1_radial_91_7)"/>
<path d="M1652.5 0H0L1.5 2054C357.251 2075.37 399.009 1632.28 470.5 1367C563.642 1045.46 684.107 854.648 869 756.639C1076.75 632.37 1325.65 616.457 1657.5 679.5L1652.5 0Z" fill="url(#paint2_radial_91_7)" fill-opacity="0.2"/>
<defs>
<radialGradient id="paint0_radial_91_7" cx="0" cy="0" r="1" gradientUnits="userSpaceOnUse" gradientTransform="translate(1067.5 1156.5) rotate(-132.708) scale(1573.86 2492.15)">
<stop stop-color="#022A2C"/>
<stop offset="0.370312" stop-color="#021E29"/>
<stop offset="0.521245" stop-color="#000F1A"/>
<stop offset="0.729167" stop-color="#020A10"/>
<stop offset="1" stop-color="#020A10"/>
</radialGradient>
<radialGradient id="paint1_radial_91_7" cx="0" cy="0" r="1" gradientUnits="userSpaceOnUse" gradientTransform="translate(972.5 977) rotate(156.162) scale(512.193 409.015)">
<stop/>
<stop offset="0.626216" stop-color="#007135"/>
<stop offset="0.86652" stop-color="#01302B" stop-opacity="0.639156"/>
<stop offset="0.9999" stop-color="#011B26" stop-opacity="0.0625"/>
<stop offset="1" stop-opacity="0"/>
</radialGradient>
<radialGradient id="paint2_radial_91_7" cx="0" cy="0" r="1" gradientUnits="userSpaceOnUse" gradientTransform="translate(499 1913.5) rotate(-123.208) scale(494.81 557.417)">
<stop stop-color="#00E66C"/>
<stop offset="0.609375" stop-color="#015629"/>
<stop offset="0.855689" stop-color="#01352D"/>
<stop offset="1" stop-color="#021B26"/>
</radialGradient>
</defs>
</svg>
