<svg width="1720" height="2308" viewBox="0 0 1720 2308" fill="none" xmlns="http://www.w3.org/2000/svg">
<path d="M1201.49 1674.74C1132.3 1802.94 997.589 1886.47 770.596 1951.06C696.966 1972.01 665.5 1980.22 491 2023C413.5 2042 377 2048.5 235 2079C107 2101 0.000244141 2137.94 0.000244141 2155.5V2307.5H1720L1720 241V0H320C290 157 426.5 207.619 480 223C520 234.5 571.5 243.984 591 246.5C653 254.5 735.55 268.629 762.5 276C964 318 1132.3 427.561 1201.49 560.03C1281.94 696.522 1304.74 842.607 1274.5 1052C1272.05 1069 1270 1105 1270 1126.5C1270 1147.31 1272.05 1182.15 1274.5 1198.6C1304.74 1401.26 1281.94 1542.64 1201.49 1674.74Z" fill="url(#paint0_radial_104_194)"/>
<path d="M1201.49 1674.74C1132.3 1802.94 997.589 1886.47 770.596 1951.06C696.966 1972.01 665.5 1980.22 491 2023C413.5 2042 377 2048.5 235 2079C107 2101 0.000244141 2137.94 0.000244141 2155.5V2307.5H1720L1720 241V0H320C290 157 426.5 207.619 480 223C520 234.5 571.5 243.984 591 246.5C653 254.5 735.55 268.629 762.5 276C964 318 1132.3 427.561 1201.49 560.03C1281.94 696.522 1304.74 842.607 1274.5 1052C1272.05 1069 1270 1105 1270 1126.5C1270 1147.31 1272.05 1182.15 1274.5 1198.6C1304.74 1401.26 1281.94 1542.64 1201.49 1674.74Z" fill="url(#paint1_radial_104_194)"/>
<path d="M1201.49 1674.74C1132.3 1802.94 997.589 1886.47 770.596 1951.06C696.966 1972.01 665.5 1980.22 491 2023C413.5 2042 377 2048.5 235 2079C107 2101 0.000244141 2137.94 0.000244141 2155.5V2307.5H1720L1720 241V0H320C290 157 426.5 207.619 480 223C520 234.5 571.5 243.984 591 246.5C653 254.5 735.55 268.629 762.5 276C964 318 1132.3 427.561 1201.49 560.03C1281.94 696.522 1304.74 842.607 1274.5 1052C1272.05 1069 1270 1105 1270 1126.5C1270 1147.31 1272.05 1182.15 1274.5 1198.6C1304.74 1401.26 1281.94 1542.64 1201.49 1674.74Z" fill="url(#paint2_linear_104_194)"/>
<path d="M1201.49 1674.74C1132.3 1802.94 997.589 1886.47 770.596 1951.06C696.966 1972.01 665.5 1980.22 491 2023C413.5 2042 377 2048.5 235 2079C107 2101 0.000244141 2137.94 0.000244141 2155.5V2307.5H1720L1720 241V0H320C290 157 426.5 207.619 480 223C520 234.5 571.5 243.984 591 246.5C653 254.5 735.55 268.629 762.5 276C964 318 1132.3 427.561 1201.49 560.03C1281.94 696.522 1304.74 842.607 1274.5 1052C1272.05 1069 1270 1105 1270 1126.5C1270 1147.31 1272.05 1182.15 1274.5 1198.6C1304.74 1401.26 1281.94 1542.64 1201.49 1674.74Z" fill="url(#paint3_radial_104_194)" fill-opacity="0.9"/>
<path d="M1201.49 1674.74C1132.3 1802.94 997.589 1886.47 770.596 1951.06C696.966 1972.01 665.5 1980.22 491 2023C413.5 2042 377 2048.5 235 2079C107 2101 0.000244141 2137.94 0.000244141 2155.5V2307.5H1720L1720 241V0H320C290 157 426.5 207.619 480 223C520 234.5 571.5 243.984 591 246.5C653 254.5 735.55 268.629 762.5 276C964 318 1132.3 427.561 1201.49 560.03C1281.94 696.522 1304.74 842.607 1274.5 1052C1272.05 1069 1270 1105 1270 1126.5C1270 1147.31 1272.05 1182.15 1274.5 1198.6C1304.74 1401.26 1281.94 1542.64 1201.49 1674.74Z" fill="url(#paint4_radial_104_194)"/>
<path d="M1201.49 1674.74C1132.3 1802.94 997.589 1886.47 770.596 1951.06C696.966 1972.01 665.5 1980.22 491 2023C413.5 2042 377 2048.5 235 2079C107 2101 0.000244141 2137.94 0.000244141 2155.5V2307.5H1720L1720 241V0H320C290 157 426.5 207.619 480 223C520 234.5 571.5 243.984 591 246.5C653 254.5 735.55 268.629 762.5 276C964 318 1132.3 427.561 1201.49 560.03C1281.94 696.522 1304.74 842.607 1274.5 1052C1272.05 1069 1270 1105 1270 1126.5C1270 1147.31 1272.05 1182.15 1274.5 1198.6C1304.74 1401.26 1281.94 1542.64 1201.49 1674.74Z" fill="url(#paint5_radial_104_194)"/>
<defs>
<radialGradient id="paint0_radial_104_194" cx="0" cy="0" r="1" gradientUnits="userSpaceOnUse" gradientTransform="translate(919.202 1537.1) rotate(42.1959) scale(1102.04 1742.25)">
<stop stop-color="#033638"/>
<stop offset="0.370312" stop-color="#022431"/>
<stop offset="0.521245" stop-color="#001625"/>
<stop offset="0.729167" stop-color="#061C2D"/>
<stop offset="1" stop-color="#041420"/>
</radialGradient>
<radialGradient id="paint1_radial_104_194" cx="0" cy="0" r="1" gradientUnits="userSpaceOnUse" gradientTransform="translate(1075 1716) rotate(-40.2651) scale(351.216 217.713)">
<stop stop-color="#389250"/>
<stop offset="0.38016" stop-color="#0B9A47" stop-opacity="0.97"/>
<stop offset="0.681194" stop-color="#065630" stop-opacity="0.660369"/>
<stop offset="0.9999" stop-color="#011B26" stop-opacity="0.0625"/>
</radialGradient>
<linearGradient id="paint2_linear_104_194" x1="860" y1="2204" x2="860" y2="1446.5" gradientUnits="userSpaceOnUse">
<stop/>
<stop offset="0.157487" stop-opacity="0.912485"/>
<stop offset="1" stop-opacity="0"/>
</linearGradient>
<radialGradient id="paint3_radial_104_194" cx="0" cy="0" r="1" gradientUnits="userSpaceOnUse" gradientTransform="translate(411.001 355) rotate(-6.35668) scale(1151.58 899.101)">
<stop stop-color="#024C2C"/>
<stop offset="0.348246" stop-color="#02362B" stop-opacity="0.651754"/>
<stop offset="0.672674" stop-color="#012025" stop-opacity="0.327326"/>
<stop offset="1" stop-color="#020A10" stop-opacity="0"/>
</radialGradient>
<radialGradient id="paint4_radial_104_194" cx="0" cy="0" r="1" gradientUnits="userSpaceOnUse" gradientTransform="translate(395.001 177) rotate(-6.72659) scale(499.438 389.938)">
<stop stop-color="#008941"/>
<stop offset="1" stop-opacity="0"/>
</radialGradient>
<radialGradient id="paint5_radial_104_194" cx="0" cy="0" r="1" gradientUnits="userSpaceOnUse" gradientTransform="translate(1023.5 659.5) rotate(-26.6742) scale(586.969 674.07)">
<stop offset="0.229657" stop-color="#00E66C"/>
<stop offset="0.556241" stop-color="#02222E" stop-opacity="0.31"/>
<stop offset="0.675403" stop-color="#021C2A" stop-opacity="0.24"/>
<stop offset="1" stop-color="#020E1A" stop-opacity="0"/>
</radialGradient>
</defs>
</svg>
