<svg width="1720" height="2308" viewBox="0 0 1720 2308" fill="none" xmlns="http://www.w3.org/2000/svg">
<path d="M1720 0.000976562L1720 1111L0 1111L0 0.00105316L1720 0.000976562Z" fill="#01070C"/>
<path d="M1720 0.000976562L1720 1111L0 1111L0 0.00105316L1720 0.000976562Z" fill="url(#paint0_radial_137_9)" fill-opacity="0.95"/>
<path d="M1720 1894.49L1720 1127L0 1127L0 2307.34L1720 1894.49Z" fill="#01070C"/>
<path d="M1720 1894.49L1720 1127L0 1127L0 2307.34L1720 1894.49Z" fill="url(#paint1_radial_137_9)" fill-opacity="0.95"/>
<path d="M1720 1894.49L1720 1127L0 1127L0 2307.34L1720 1894.49Z" fill="url(#paint2_linear_137_9)" fill-opacity="0.4"/>
<defs>
<radialGradient id="paint0_radial_137_9" cx="0" cy="0" r="1" gradientUnits="userSpaceOnUse" gradientTransform="translate(1210.38 474.439) rotate(-146.886) scale(1076.33 2469.79)">
<stop stop-color="#58C570"/>
<stop offset="0.27869" stop-color="#01702B"/>
<stop offset="0.412653" stop-color="#01562B"/>
<stop offset="0.585014" stop-color="#01202A"/>
<stop offset="0.780933" stop-color="#010D19"/>
<stop offset="1" stop-color="#02101B"/>
</radialGradient>
<radialGradient id="paint1_radial_137_9" cx="0" cy="0" r="1" gradientUnits="userSpaceOnUse" gradientTransform="translate(1210.38 1566.74) rotate(155.745) scale(988.807 1857.18)">
<stop stop-color="#58C570"/>
<stop offset="0.27869" stop-color="#01702B"/>
<stop offset="0.412653" stop-color="#01562B"/>
<stop offset="0.585014" stop-color="#01202A"/>
<stop offset="0.780933" stop-color="#010D19"/>
<stop offset="0.994249" stop-color="#01070C"/>
<stop offset="1" stop-color="#020A10" stop-opacity="0"/>
</radialGradient>
<linearGradient id="paint2_linear_137_9" x1="449.001" y1="1846.63" x2="573.64" y2="1349.17" gradientUnits="userSpaceOnUse">
<stop/>
<stop offset="1" stop-opacity="0"/>
</linearGradient>
</defs>
</svg>
