<svg width="1720" height="1232" viewBox="0 0 1720 1232" fill="none" xmlns="http://www.w3.org/2000/svg">
<path d="M283.446 1012.23C344.905 857.772 464.005 861.926 651.608 985.186L660.212 990.84C840.198 1109.11 872.38 1130.26 1007.42 1151.84C1073.97 1162.43 1141.73 1159.75 1221.68 1147.09C1320.79 1131.14 1416.56 1098.9 1719.65 990.04L1719.65 249.795C1416.56 137.317 1320.79 103.997 1221.68 87.5167C1141.73 74.4404 1073.97 71.6718 1007.41 82.6187C872.38 104.913 840.197 126.764 660.211 248.969C657.38 250.891 654.513 252.838 651.607 254.81C464.005 382.169 344.905 386.461 283.446 226.868C209.185 72.4625 104.068 -1.29919 0 0.017334L0.000244141 1231.78C104.069 1233.05 209.185 1161.66 283.446 1012.23Z" fill="#000F1A"/>
<path d="M283.446 1012.23C344.905 857.772 464.005 861.926 651.608 985.186L660.212 990.84C840.198 1109.11 872.38 1130.26 1007.42 1151.84C1073.97 1162.43 1141.73 1159.75 1221.68 1147.09C1320.79 1131.14 1416.56 1098.9 1719.65 990.04L1719.65 249.795C1416.56 137.317 1320.79 103.997 1221.68 87.5167C1141.73 74.4404 1073.97 71.6718 1007.41 82.6187C872.38 104.913 840.197 126.764 660.211 248.969C657.38 250.891 654.513 252.838 651.607 254.81C464.005 382.169 344.905 386.461 283.446 226.868C209.185 72.4625 104.068 -1.29919 0 0.017334L0.000244141 1231.78C104.069 1233.05 209.185 1161.66 283.446 1012.23Z" fill="url(#paint0_radial_112_7)"/>
<path d="M283.446 1012.23C344.905 857.772 464.005 861.926 651.608 985.186L660.212 990.84C840.198 1109.11 872.38 1130.26 1007.42 1151.84C1073.97 1162.43 1141.73 1159.75 1221.68 1147.09C1320.79 1131.14 1416.56 1098.9 1719.65 990.04L1719.65 249.795C1416.56 137.317 1320.79 103.997 1221.68 87.5167C1141.73 74.4404 1073.97 71.6718 1007.41 82.6187C872.38 104.913 840.197 126.764 660.211 248.969C657.38 250.891 654.513 252.838 651.607 254.81C464.005 382.169 344.905 386.461 283.446 226.868C209.185 72.4625 104.068 -1.29919 0 0.017334L0.000244141 1231.78C104.069 1233.05 209.185 1161.66 283.446 1012.23Z" fill="url(#paint1_radial_112_7)" fill-opacity="0.2"/>
<path d="M283.446 1012.23C344.905 857.772 464.005 861.926 651.608 985.186L660.212 990.84C840.198 1109.11 872.38 1130.26 1007.42 1151.84C1073.97 1162.43 1141.73 1159.75 1221.68 1147.09C1320.79 1131.14 1416.56 1098.9 1719.65 990.04L1719.65 249.795C1416.56 137.317 1320.79 103.997 1221.68 87.5167C1141.73 74.4404 1073.97 71.6718 1007.41 82.6187C872.38 104.913 840.197 126.764 660.211 248.969C657.38 250.891 654.513 252.838 651.607 254.81C464.005 382.169 344.905 386.461 283.446 226.868C209.185 72.4625 104.068 -1.29919 0 0.017334L0.000244141 1231.78C104.069 1233.05 209.185 1161.66 283.446 1012.23Z" fill="url(#paint2_radial_112_7)"/>
<path d="M283.446 1012.23C344.905 857.772 464.005 861.926 651.608 985.186L660.212 990.84C840.198 1109.11 872.38 1130.26 1007.42 1151.84C1073.97 1162.43 1141.73 1159.75 1221.68 1147.09C1320.79 1131.14 1416.56 1098.9 1719.65 990.04L1719.65 249.795C1416.56 137.317 1320.79 103.997 1221.68 87.5167C1141.73 74.4404 1073.97 71.6718 1007.41 82.6187C872.38 104.913 840.197 126.764 660.211 248.969C657.38 250.891 654.513 252.838 651.607 254.81C464.005 382.169 344.905 386.461 283.446 226.868C209.185 72.4625 104.068 -1.29919 0 0.017334L0.000244141 1231.78C104.069 1233.05 209.185 1161.66 283.446 1012.23Z" fill="url(#paint3_radial_112_7)"/>
<defs>
<radialGradient id="paint0_radial_112_7" cx="0" cy="0" r="1" gradientUnits="userSpaceOnUse" gradientTransform="translate(166.647 1216.79) rotate(172.823) scale(620.36 364.12)">
<stop stop-color="#01612A"/>
<stop offset="0.355566" stop-color="#003A27" stop-opacity="0.859814"/>
<stop offset="0.496989" stop-color="#022424"/>
<stop offset="0.724394" stop-color="#02101B" stop-opacity="0.3"/>
<stop offset="1" stop-color="#010C13" stop-opacity="0"/>
</radialGradient>
<radialGradient id="paint1_radial_112_7" cx="0" cy="0" r="1" gradientUnits="userSpaceOnUse" gradientTransform="translate(905.403 1231.79) rotate(-70.4402) scale(321.573 559.84)">
<stop offset="0.315173" stop-color="#00E66C"/>
<stop offset="0.565624" stop-color="#01583D"/>
<stop offset="0.755208" stop-color="#02242B"/>
<stop offset="1" stop-color="#01090E" stop-opacity="0"/>
</radialGradient>
<radialGradient id="paint2_radial_112_7" cx="0" cy="0" r="1" gradientUnits="userSpaceOnUse" gradientTransform="translate(272.857 1204.75) rotate(-139.27) scale(422.951 768.059)">
<stop stop-color="#18FF6E"/>
<stop offset="0.316515" stop-color="#0D873A" stop-opacity="0.529599"/>
<stop offset="0.636778" stop-color="#053718" stop-opacity="0.215813"/>
<stop offset="1" stop-color="#010D19" stop-opacity="0"/>
</radialGradient>
<radialGradient id="paint3_radial_112_7" cx="0" cy="0" r="1" gradientUnits="userSpaceOnUse" gradientTransform="translate(164.647 -121.205) rotate(132.265) scale(437.136 720.401)">
<stop stop-color="#007135"/>
<stop offset="0.195275" stop-color="#01702B"/>
<stop offset="1" stop-color="#010C13" stop-opacity="0"/>
</radialGradient>
</defs>
</svg>
