<svg xmlns="http://www.w3.org/2000/svg" xmlns:xlink="http://www.w3.org/1999/xlink" version="1.1" width="624" height="624" viewBox="0 0 480 480" xml:space="preserve">
	<g transform="matrix(15.83 0 0 15.83 239.79 241.94)">
		<path style="stroke: none; stroke-width: 1; stroke-dasharray: none; stroke-linecap: butt; stroke-dashoffset: 0; stroke-linejoin: miter; stroke-miterlimit: 4; fill: rgb(106,255,82); fill-rule: nonzero; opacity: 1;" transform=" translate(-12, -12.5)" d="M 11.07 12.85 c 0.77 -1.39 2.25 -2.21 3.11 -3.44 c 0.91 -1.29 0.4 -3.7 -2.18 -3.7 c -1.69 0 -2.52 1.28 -2.87 2.34 L 6.54 6.96 C 7.25 4.83 9.18 3 11.99 3 c 2.35 0 3.96 1.07 4.78 2.41 c 0.7 1.15 1.11 3.3 0.03 4.9 c -1.2 1.77 -2.35 2.31 -2.97 3.45 c -0.25 0.46 -0.35 0.76 -0.35 2.24 h -2.89 c -0.01 -0.78 -0.13 -2.05 0.48 -3.15 z M 14 20 c 0 1.1 -0.9 2 -2 2 s -2 -0.9 -2 -2 s 0.9 -2 2 -2 s 2 0.9 2 2 z" stroke-linecap="round" />
	</g>
</svg>